<svg width="1148" height="59" viewBox="0 0 1148 59" fill="none" xmlns="http://www.w3.org/2000/svg">
<path d="M17.9568 56.3509L11.9976 46.0292L20.743 30.923L26.3005 40.5496L59.107 40.5319L49.798 56.4934L17.9568 56.3509Z" fill="#FFAD64"/>
<path d="M64.9646 30.2831L59.0054 40.6047L41.5505 40.5841L47.1085 30.9579L30.6899 2.55548L49.1675 2.63655L64.9646 30.2831Z" fill="#ADD4D3"/>
<path d="M18.8747 2.49982H30.7931L39.5028 17.6268L28.3871 17.6264L11.9992 46.0465L2.83057 30.0039L18.8747 2.49982Z" fill="#FB8351"/>
<path fill-rule="evenodd" clip-rule="evenodd" d="M32.2463 0.11018L32.2108 0.0485229H17.4668L0 29.9917L11.99 50.9708L12.0047 50.9454L16.5374 58.7963L51.2023 58.9514L63.3759 38.078H63.2949L67.792 30.289L50.5939 0.190677L32.2463 0.11018ZM43.6518 20.0787H43.7437L35.0767 5.02591L47.7413 5.08144L62.1375 30.2763L57.6314 38.0812L45.8226 38.0875L49.9399 30.9566L43.6518 20.0787ZM29.2438 4.9517L35.1536 15.1752L26.9712 15.175L12.9627 39.4685L12.0072 41.1191L5.6619 30.0166L20.2831 4.9517H29.2438ZM23.5619 30.9028L29.8037 20.0783L37.9881 20.0786L44.2772 30.9581L40.159 38.0906L27.7154 38.0973L23.5619 30.9028ZM14.8338 46.0391L17.2085 41.9211L20.7398 35.8214L24.8853 43.0021L37.327 42.9953L37.3069 43.0302L54.7996 43.0509L48.3932 54.0356L19.3756 53.9057L14.8338 46.0391Z" fill="#333237"/>
<path d="M82.0712 50.4219V38.9444H77.8291V37.6559H87.9389V38.9444H83.6967V50.4219H82.0712Z" fill="white"/>
<path d="M92.4556 50.6207C90.7772 50.6207 89.5218 50.2177 88.6893 49.4115C87.8566 48.6054 87.4404 47.3632 87.4404 45.6847C87.4404 44.1783 87.7972 42.9955 88.5109 42.1364C89.2376 41.2642 90.3809 40.8281 91.9403 40.8281C92.8653 40.8281 93.6251 40.9999 94.2199 41.3436C94.8277 41.6739 95.2772 42.1364 95.5679 42.7312C95.8718 43.3126 96.0238 43.9734 96.0238 44.7135V46.4777H89.0659C89.1187 47.1913 89.2707 47.7529 89.5218 48.1627C89.7861 48.5723 90.1759 48.8696 90.6914 49.0547C91.2199 49.2264 91.9139 49.3124 92.7728 49.3124C93.7375 49.3124 94.6229 49.1472 95.429 48.8168V50.0855C95.0194 50.2573 94.5568 50.3895 94.0415 50.482C93.5392 50.5745 93.0107 50.6207 92.4556 50.6207ZM89.0659 45.3082H94.5767V44.5351C94.5767 43.7685 94.3719 43.1805 93.9621 42.7708C93.5658 42.3479 92.9049 42.1364 91.9798 42.1364C90.8566 42.1364 90.0901 42.4008 89.6804 42.9294C89.2707 43.4579 89.0659 44.2509 89.0659 45.3082Z" fill="white"/>
<path d="M102.847 50.6207C101.208 50.6207 99.9921 50.1978 99.1992 49.352C98.4063 48.4931 98.0098 47.2838 98.0098 45.7244C98.0098 44.0725 98.4591 42.8435 99.3578 42.0374C100.256 41.2313 101.466 40.8281 102.985 40.8281C103.607 40.8281 104.122 40.8743 104.532 40.9669C104.941 41.0461 105.338 41.1783 105.721 41.3633V42.6518C105.007 42.3083 104.195 42.1364 103.283 42.1364C102.12 42.1364 101.221 42.414 100.587 42.9691C99.9524 43.5109 99.6353 44.4293 99.6353 45.7244C99.6353 46.9667 99.9129 47.8785 100.468 48.46C101.023 49.0283 101.941 49.3124 103.223 49.3124C104.135 49.3124 104.974 49.1407 105.741 48.797V50.1053C105.331 50.2772 104.888 50.4026 104.413 50.482C103.95 50.5745 103.428 50.6207 102.847 50.6207Z" fill="white"/>
<path d="M107.563 50.4219V37.0612H109.188V42.0368C109.625 41.68 110.133 41.3893 110.715 41.1646C111.31 40.9399 111.997 40.8275 112.776 40.8275C113.913 40.8275 114.765 41.1051 115.334 41.6602C115.902 42.2152 116.186 43.0874 116.186 44.2768V50.4219H114.561V44.3363C114.561 43.5169 114.376 42.9487 114.006 42.6314C113.649 42.3012 113.054 42.1359 112.221 42.1359C111.693 42.1359 111.144 42.2548 110.576 42.4927C110.021 42.7174 109.559 43.0148 109.188 43.3847V50.4219H107.563Z" fill="white"/>
<path d="M122.669 50.6206C121.347 50.6206 120.29 50.3299 119.497 49.7483C118.704 49.1668 118.308 48.3871 118.308 47.4091C118.308 46.5105 118.585 45.7374 119.14 45.0899C119.695 44.4423 120.455 43.8674 121.42 43.3653C120.904 42.8499 120.468 42.3675 120.112 41.9182C119.755 41.4689 119.576 40.927 119.576 40.2927C119.576 39.4997 119.847 38.8324 120.389 38.2906C120.944 37.7355 121.724 37.4581 122.728 37.4581C123.706 37.4581 124.466 37.7157 125.008 38.2311C125.549 38.7464 125.821 39.4337 125.821 40.2927C125.821 41.0064 125.629 41.6077 125.245 42.0966C124.862 42.5856 124.314 43.0811 123.6 43.5834L126.891 46.9334C127.115 46.4445 127.228 45.8233 127.228 45.07V44.7926H128.517V45.07C128.517 45.5855 128.457 46.0877 128.338 46.5766C128.22 47.0656 128.047 47.4885 127.823 47.8453L129.607 49.6492L128.615 50.5413L127.029 48.9753C126.567 49.5435 125.966 49.9598 125.226 50.2241C124.486 50.4884 123.633 50.6206 122.669 50.6206ZM122.589 42.7904C123.211 42.4072 123.68 42.0438 123.997 41.7001C124.314 41.3433 124.473 40.894 124.473 40.3522C124.473 39.85 124.334 39.4535 124.056 39.1628C123.792 38.8589 123.349 38.7069 122.728 38.7069C122.094 38.7069 121.631 38.8655 121.341 39.1826C121.063 39.4998 120.924 39.8897 120.924 40.3522C120.924 40.7751 121.07 41.1649 121.36 41.5217C121.664 41.8785 122.074 42.3014 122.589 42.7904ZM122.669 49.451C123.435 49.451 124.089 49.3386 124.631 49.114C125.186 48.8761 125.655 48.526 126.039 48.0634L122.411 44.3564C121.552 44.7529 120.911 45.1823 120.488 45.6449C120.079 46.0942 119.874 46.6691 119.874 47.3696C119.874 48.0567 120.138 48.5788 120.667 48.9356C121.195 49.2791 121.863 49.451 122.669 49.451Z" fill="#FB8351"/>
<path d="M78.4697 28.3895V10.7134H83.6298V24.437H91.5896V28.3895H78.4697Z" fill="#FB8351"/>
<path d="M99.8904 28.6642C97.2921 28.6642 95.3707 28.0877 94.1265 26.9349C92.9006 25.7821 92.2876 24.0987 92.2876 21.8846C92.2876 19.6889 92.9097 18.0146 94.154 16.8618C95.3983 15.6908 97.3104 15.1052 99.8904 15.1052C102.489 15.1052 104.41 15.6908 105.654 16.8618C106.917 18.0146 107.548 19.6889 107.548 21.8846C107.548 24.0987 106.926 25.7821 105.682 26.9349C104.438 28.0877 102.507 28.6642 99.8904 28.6642ZM99.8904 24.9038C100.732 24.9038 101.336 24.666 101.702 24.1902C102.086 23.7145 102.278 22.9459 102.278 21.8846C102.278 20.8417 102.086 20.0823 101.702 19.6066C101.336 19.1125 100.732 18.8654 99.8904 18.8654C99.067 18.8654 98.4723 19.1125 98.1064 19.6066C97.7404 20.0823 97.5574 20.8417 97.5574 21.8846C97.5574 22.9459 97.7404 23.7145 98.1064 24.1902C98.4723 24.666 99.067 24.9038 99.8904 24.9038Z" fill="#FB8351"/>
<path d="M115.191 33.2204C114.55 33.2204 113.855 33.193 113.105 33.138C112.354 33.1015 111.641 33.0283 110.964 32.9185C110.305 32.8088 109.756 32.6806 109.317 32.5342V29.2405C109.811 29.4052 110.378 29.5425 111.019 29.6523C111.677 29.762 112.345 29.8444 113.022 29.8993C113.699 29.9541 114.321 29.9817 114.889 29.9817C115.858 29.9817 116.618 29.9267 117.167 29.817C117.734 29.7255 118.018 29.5516 118.018 29.2955C118.018 29.0759 117.926 28.9295 117.743 28.8563C117.56 28.8013 117.213 28.7739 116.7 28.7739H113.269C111.934 28.7739 110.9 28.5636 110.168 28.1427C109.454 27.7035 109.097 27.054 109.097 26.1939C109.097 24.9862 109.765 24.1445 111.101 23.6688C110.351 23.2845 109.802 22.7996 109.454 22.214C109.106 21.6286 108.933 20.8874 108.933 19.9908C108.933 18.3073 109.5 17.0722 110.634 16.2854C111.787 15.4987 113.443 15.1052 115.602 15.1052C116.06 15.1052 116.572 15.1417 117.139 15.2149C117.707 15.2699 118.118 15.3248 118.374 15.3796H123.48L123.37 18.5086H121.641C121.97 18.9295 122.135 19.4419 122.135 20.0457C122.135 21.3815 121.741 22.4428 120.954 23.2296C120.186 23.9981 118.969 24.3824 117.304 24.3824C117.066 24.3824 116.81 24.3733 116.535 24.3549C116.261 24.3184 116.005 24.2909 115.767 24.2725C115.364 24.3092 115.017 24.3824 114.724 24.4922C114.431 24.6019 114.285 24.7849 114.285 25.0411C114.285 25.2241 114.367 25.3523 114.532 25.4253C114.697 25.4803 114.925 25.5077 115.218 25.5077H118.21C119.546 25.5077 120.598 25.8188 121.366 26.441C122.135 27.0631 122.519 27.978 122.519 29.1857C122.519 30.4665 121.924 31.4546 120.735 32.15C119.546 32.8636 117.698 33.2204 115.191 33.2204ZM115.63 21.5553C116.435 21.5553 116.993 21.418 117.304 21.1436C117.615 20.8691 117.771 20.4117 117.771 19.7713C117.771 19.1307 117.615 18.6642 117.304 18.3714C116.993 18.0787 116.435 17.9323 115.63 17.9323C114.88 17.9323 114.331 18.0787 113.983 18.3714C113.654 18.6459 113.489 19.1125 113.489 19.7713C113.489 20.3934 113.644 20.8508 113.955 21.1436C114.285 21.418 114.843 21.5553 115.63 21.5553Z" fill="#FB8351"/>
<path d="M131.895 28.6642C129.296 28.6642 127.375 28.0877 126.131 26.9349C124.905 25.7821 124.292 24.0987 124.292 21.8846C124.292 19.6889 124.914 18.0146 126.158 16.8618C127.402 15.6908 129.315 15.1052 131.895 15.1052C134.493 15.1052 136.414 15.6908 137.658 16.8618C138.922 18.0146 139.552 19.6889 139.552 21.8846C139.552 24.0987 138.93 25.7821 137.686 26.9349C136.441 28.0877 134.511 28.6642 131.895 28.6642ZM131.895 24.9038C132.736 24.9038 133.34 24.666 133.706 24.1902C134.09 23.7145 134.283 22.9459 134.283 21.8846C134.283 20.8417 134.09 20.0823 133.706 19.6066C133.34 19.1125 132.736 18.8654 131.895 18.8654C131.072 18.8654 130.476 19.1125 130.11 19.6066C129.744 20.0823 129.562 20.8417 129.562 21.8846C129.562 22.9459 129.744 23.7145 130.11 24.1902C130.476 24.666 131.072 24.9038 131.895 24.9038Z" fill="#FB8351"/>
<path d="M141.82 13.6499V9.91705H147.392V13.6499H141.82ZM142.231 28.3891V19.1394H140.339L140.777 15.3791H147.392V28.3891H142.231Z" fill="white"/>
<path d="M149.867 34.3182V15.3796H154.342L154.589 16.4225C155.118 16.0018 155.695 15.6815 156.317 15.462C156.958 15.2241 157.699 15.1052 158.541 15.1052C160.48 15.1052 161.972 15.5991 163.015 16.5872C164.075 17.557 164.606 19.2131 164.606 21.5552C164.606 23.8792 164.048 25.6448 162.932 26.8526C161.816 28.0603 160.279 28.664 158.321 28.664C157.022 28.664 155.924 28.4171 155.027 27.923V34.3182H149.867ZM157.003 24.9038C157.754 24.9038 158.331 24.6385 158.733 24.1078C159.136 23.5772 159.337 22.7538 159.337 21.6375C159.337 20.558 159.144 19.8261 158.76 19.4419C158.394 19.0575 157.827 18.8654 157.058 18.8654C156.29 18.8654 155.613 19.1216 155.027 19.634V24.2451C155.321 24.4646 155.613 24.6293 155.906 24.7391C156.198 24.8489 156.564 24.9038 157.003 24.9038Z" fill="white"/>
<path d="M171.483 28.664C170.367 28.664 169.315 28.5818 168.327 28.4171C167.356 28.2707 166.589 28.0786 166.021 27.8407V24.1352C166.661 24.4281 167.421 24.6568 168.298 24.8215C169.196 24.9862 169.956 25.0685 170.576 25.0685C171.236 25.0685 171.73 25.0502 172.059 25.0136C172.408 24.977 172.58 24.8215 172.58 24.547C172.58 24.236 172.279 23.9981 171.675 23.8334C171.072 23.6687 170.312 23.4307 169.397 23.1197C168.207 22.6988 167.319 22.2049 166.734 21.6375C166.149 21.0704 165.856 20.247 165.856 19.1673C165.856 17.8682 166.369 16.871 167.394 16.1756C168.418 15.462 170.028 15.1052 172.223 15.1052C173.065 15.1052 173.935 15.1691 174.831 15.2973C175.727 15.4253 176.432 15.5717 176.945 15.7364V19.3595C176.395 19.1216 175.792 18.9477 175.134 18.838C174.493 18.7281 173.908 18.6733 173.377 18.6733C172.791 18.6733 172.269 18.7007 171.812 18.7556C171.354 18.8105 171.126 18.966 171.126 19.2222C171.126 19.5149 171.383 19.7255 171.895 19.8535C172.425 19.9817 173.13 20.1829 174.007 20.4574C174.997 20.7501 175.764 21.0704 176.314 21.418C176.881 21.7657 177.274 22.1865 177.494 22.6806C177.731 23.1747 177.851 23.7876 177.851 24.5196C177.851 25.8371 177.31 26.8617 176.231 27.5936C175.169 28.3072 173.586 28.664 171.483 28.664Z" fill="white"/>
<path d="M184.501 28.6636C182.982 28.6636 181.793 28.2337 180.933 27.3736C180.074 26.5136 179.644 25.251 179.644 23.5858V15.3792H184.804V23.1742C184.804 24.3086 185.38 24.8759 186.532 24.8759C186.953 24.8759 187.365 24.7844 187.768 24.6015C188.17 24.4185 188.49 24.1897 188.728 23.9153V15.3792H193.888V28.3891H189.058L188.921 27.401C188.409 27.767 187.777 28.069 187.027 28.3068C186.295 28.5447 185.453 28.6636 184.501 28.6636Z" fill="white"/>
<path d="M196.346 28.3896V15.3796H201.121L201.258 16.4225C201.826 16.0383 202.457 15.7273 203.152 15.4894C203.866 15.2332 204.644 15.1052 205.486 15.1052C206.326 15.1052 206.986 15.2241 207.461 15.462C207.938 15.6998 208.322 16.0474 208.614 16.5049C209.2 16.0841 209.859 15.7456 210.591 15.4894C211.34 15.2332 212.22 15.1052 213.226 15.1052C214.744 15.1052 215.861 15.5076 216.574 16.3128C217.288 17.0996 217.645 18.3073 217.645 19.9358V28.3896H212.566V20.5397C212.566 19.9541 212.448 19.5425 212.21 19.3046C211.973 19.0484 211.579 18.9203 211.029 18.9203C210.316 18.9203 209.73 19.1765 209.274 19.6888C209.309 19.9267 209.328 20.1555 209.328 20.375C209.328 20.5762 209.328 20.805 209.328 21.0612V28.3896H204.552V20.4574C204.552 19.9267 204.461 19.5425 204.278 19.3046C204.094 19.0484 203.747 18.9203 203.235 18.9203C202.887 18.9203 202.549 19.0118 202.219 19.1948C201.889 19.3778 201.597 19.5973 201.341 19.8535V28.3896H196.346Z" fill="white"/>
<path d="M138.011 50.7845C136.636 50.7845 135.493 50.5267 134.581 50.0113C133.683 49.4827 133.009 48.7492 132.56 47.8109C132.11 46.8595 131.886 45.7494 131.886 44.4807C131.886 43.0932 132.097 41.8839 132.52 40.8531C132.942 39.8223 133.603 39.0294 134.502 38.4743C135.402 37.9061 136.563 37.6219 137.991 37.6219C138.731 37.6219 139.398 37.6748 139.993 37.7805C140.601 37.8863 141.169 38.0316 141.699 38.2167V39.6439C141.169 39.4457 140.608 39.2937 140.013 39.1879C139.418 39.069 138.791 39.0095 138.13 39.0095C136.98 39.0095 136.068 39.2276 135.394 39.6638C134.721 40.0998 134.238 40.7275 133.947 41.5469C133.656 42.3663 133.51 43.3442 133.51 44.4807C133.51 46.0533 133.882 47.2692 134.621 48.1282C135.374 48.974 136.558 49.3969 138.169 49.3969C138.764 49.3969 139.365 49.3505 139.973 49.258C140.594 49.1655 141.169 49.0203 141.699 48.822V50.2691C141.182 50.4277 140.621 50.5531 140.013 50.6458C139.418 50.7382 138.751 50.7845 138.011 50.7845Z" fill="white"/>
<path d="M148.373 50.7839C146.734 50.7839 145.538 50.3676 144.785 49.5351C144.045 48.6893 143.676 47.4734 143.676 45.8876C143.676 44.3149 144.053 43.1057 144.805 42.26C145.558 41.4142 146.749 40.9913 148.373 40.9913C149.999 40.9913 151.189 41.4142 151.941 42.26C152.695 43.1057 153.071 44.3149 153.071 45.8876C153.071 47.4734 152.702 48.6893 151.961 49.5351C151.222 50.3676 150.026 50.7839 148.373 50.7839ZM148.373 49.3964C149.496 49.3964 150.29 49.1188 150.752 48.5637C151.215 47.9955 151.446 47.1035 151.446 45.8876C151.446 44.6717 151.209 43.7864 150.732 43.2313C150.27 42.663 149.483 42.3788 148.373 42.3788C147.264 42.3788 146.47 42.663 145.995 43.2313C145.533 43.7864 145.301 44.6717 145.301 45.8876C145.301 47.1035 145.533 47.9955 145.995 48.5637C146.457 49.1188 147.25 49.3964 148.373 49.3964Z" fill="white"/>
<path d="M155.058 50.5861V49.2184H156.525V50.5861H155.058Z" fill="white"/>
<path fill-rule="evenodd" clip-rule="evenodd" d="M394.881 6.4351C396.933 4.38239 400.262 4.38239 402.315 6.4351C404.367 8.48796 404.367 11.8162 402.315 13.869L389.799 26.3845C386.206 21.5688 386.596 14.7197 390.97 10.3457L394.881 6.4351Z" fill="#4F9E91"/>
<path fill-rule="evenodd" clip-rule="evenodd" d="M412.772 34.672C414.825 36.7247 414.825 40.0531 412.772 42.1058C410.72 44.1586 407.392 44.1586 405.339 42.1058L392.823 29.5904C397.639 25.9971 404.488 26.3874 408.862 30.7614L412.772 34.672Z" fill="#EBE1C5"/>
<path fill-rule="evenodd" clip-rule="evenodd" d="M384.535 52.5645C382.482 54.6173 379.154 54.6173 377.101 52.5645C375.048 50.5116 375.048 47.1834 377.101 45.1305L389.617 32.6152C393.21 37.4309 392.82 44.28 388.446 48.6539L384.535 52.5645Z" fill="#EBCC6E"/>
<path fill-rule="evenodd" clip-rule="evenodd" d="M366.643 24.3267C364.59 22.2738 364.59 18.9456 366.643 16.8927C368.696 14.8399 372.024 14.8399 374.077 16.8927L386.593 29.4082C381.777 33.0015 374.928 32.6112 370.554 28.2373L366.643 24.3267Z" fill="#ED834E"/>
<path fill-rule="evenodd" clip-rule="evenodd" d="M392.083 51.0315C395.11 47.666 396.517 43.3595 396.303 39.1195L402.314 45.1302C402.329 45.1451 402.344 45.16 402.359 45.175V49.4662C402.359 52.3693 400.006 54.7227 397.103 54.7227C394.745 54.7227 392.749 53.1701 392.083 51.0315Z" fill="#ED834E"/>
<path fill-rule="evenodd" clip-rule="evenodd" d="M368.176 31.8751C371.541 34.9022 375.847 36.3091 380.087 36.0956L374.077 42.1063C374.062 42.1212 374.047 42.1363 374.032 42.1512H369.741C366.838 42.1514 364.484 39.7978 364.484 36.8947C364.484 34.5368 366.037 32.5414 368.176 31.8751Z" fill="#4F9E91"/>
<path fill-rule="evenodd" clip-rule="evenodd" d="M411.24 27.1248C407.875 24.0978 403.568 22.6909 399.328 22.9042L405.339 16.8937C405.354 16.8787 405.368 16.8637 405.383 16.8486H409.675C412.578 16.8486 414.932 19.2022 414.932 22.1053C414.932 24.4633 413.379 26.4586 411.24 27.1248Z" fill="#EBCC6E"/>
<path fill-rule="evenodd" clip-rule="evenodd" d="M387.333 7.96787C384.306 11.3332 382.899 15.6397 383.112 19.8798L377.102 13.8692C377.087 13.8543 377.072 13.8393 377.057 13.8244V9.53318C377.057 6.63007 379.41 4.27649 382.313 4.27649C384.671 4.27649 386.667 5.82922 387.333 7.96787Z" fill="#EBE1C5"/>
<path fill-rule="evenodd" clip-rule="evenodd" d="M382.313 0C377.048 0 372.78 4.26828 372.78 9.5334V11.3876C369.612 10.56 366.101 11.3872 363.619 13.8694C359.896 17.5925 359.896 23.6287 363.619 27.3517L364.93 28.6628C362.105 30.3174 360.208 33.3846 360.208 36.8949C360.208 42.16 364.476 46.4283 369.741 46.4283H371.595C370.768 49.5959 371.595 53.1064 374.077 55.5885C377.8 59.3115 383.837 59.3115 387.56 55.5885L391.47 51.678C394.92 48.2284 396.531 43.6363 396.304 39.1196L402.314 45.1303C406.037 48.8533 412.074 48.8533 415.797 45.1303C419.52 41.4072 419.52 35.371 415.797 31.6481L414.486 30.3372C417.31 28.6826 419.208 25.6154 419.208 22.1051C419.208 16.84 414.939 12.5717 409.674 12.5717H407.82C408.648 9.40397 407.821 5.89349 405.338 3.41122C401.616 -0.31182 395.579 -0.31182 391.856 3.41122L387.946 7.32183C384.496 10.7715 382.885 15.3634 383.112 19.8801L377.102 13.8694C377.086 13.8545 377.072 13.8395 377.056 13.8246V9.5334C377.056 6.63029 379.41 4.27686 382.313 4.27686C384.671 4.27686 386.666 5.82944 387.333 7.96809C387.53 7.74858 387.734 7.53306 387.946 7.32183L390.545 4.72225C388.89 1.89724 385.823 0 382.313 0ZM405.383 16.8486C405.368 16.8635 405.354 16.8786 405.338 16.8935L399.328 22.904C403.568 22.6907 407.874 24.0975 411.239 27.1247C413.378 26.4584 414.932 24.463 414.932 22.1051C414.932 19.202 412.578 16.8486 409.674 16.8486H405.383ZM374.032 42.1514C374.047 42.1363 374.062 42.1213 374.077 42.1063L380.088 36.0957C375.848 36.3091 371.541 34.9022 368.176 31.8753C366.037 32.5416 364.485 34.5369 364.485 36.8949C364.485 39.798 366.838 42.1514 369.741 42.1514H374.032ZM368.012 31.7259C367.849 31.5752 367.688 31.4206 367.53 31.2622V31.2623C367.688 31.4208 367.849 31.5752 368.012 31.7259ZM397.103 59C393.592 59 390.525 57.1026 388.871 54.2776L391.47 51.678C391.681 51.4668 391.886 51.2513 392.083 51.0318C392.749 53.1704 394.745 54.7231 397.103 54.7231C400.006 54.7231 402.359 52.3697 402.359 49.4666V45.1754C403.591 46.3912 405.072 47.2035 406.636 47.6123V49.4666C406.636 54.7317 402.368 59 397.103 59ZM402.314 6.43533C400.261 4.38262 396.933 4.38262 394.88 6.43533L390.97 10.3459C386.596 14.72 386.206 21.569 389.799 26.3848L402.314 13.8693C404.367 11.8164 404.367 8.48819 402.314 6.43533ZM412.772 42.1062C414.825 40.0533 414.825 36.7251 412.772 34.6722L408.862 30.7616C404.488 26.3877 397.639 25.9974 392.823 29.5907L405.338 42.1062C407.391 44.159 410.72 44.159 412.772 42.1062ZM384.535 52.5644C382.482 54.6172 379.154 54.6172 377.101 52.5644C375.049 50.5115 375.049 47.1833 377.101 45.1304L389.617 32.6149C393.21 37.4307 392.82 44.2799 388.446 48.6538L384.535 52.5644ZM366.643 16.8935C364.591 18.9464 364.591 22.2746 366.643 24.3275L370.554 28.2381C374.928 32.612 381.777 33.0023 386.593 29.409L374.077 16.8935C372.024 14.8408 368.696 14.8408 366.643 16.8935Z" fill="#3D3A2C"/>
<path d="M289.645 19.2781H294.32V33.8057H302.35V37.7414H289.645V19.2781Z" fill="white"/>
<path d="M310.838 38.1376C309.271 38.1376 307.897 37.8558 306.717 37.2924C305.538 36.7112 304.622 35.9188 303.97 34.9152C303.337 33.8938 303.02 32.7228 303.02 31.402C303.02 30.0814 303.337 28.9192 303.97 27.9155C304.622 26.8941 305.538 26.1017 306.717 25.5383C307.897 24.9571 309.271 24.6666 310.838 24.6666C312.405 24.6666 313.779 24.9571 314.959 25.5383C316.138 26.1017 317.045 26.8941 317.679 27.9155C318.331 28.9192 318.656 30.0814 318.656 31.402C318.656 32.7228 318.331 33.8938 317.679 34.9152C317.045 35.9188 316.138 36.7112 314.959 37.2924C313.779 37.8558 312.405 38.1376 310.838 38.1376ZM310.838 34.5189C311.771 34.5189 312.511 34.246 313.057 33.7001C313.62 33.1366 313.902 32.3706 313.902 31.402C313.902 30.4336 313.62 29.6764 313.057 29.1305C312.511 28.567 311.771 28.2853 310.838 28.2853C309.905 28.2853 309.156 28.567 308.593 29.1305C308.047 29.6764 307.774 30.4336 307.774 31.402C307.774 32.3706 308.047 33.1366 308.593 33.7001C309.156 34.246 309.905 34.5189 310.838 34.5189Z" fill="white"/>
<path d="M327.389 43.8166C326.544 43.8166 325.69 43.7374 324.827 43.5789C323.982 43.4204 323.251 43.2091 322.635 42.9449V39.7225C324.026 40.3211 325.61 40.6205 327.389 40.6205C328.674 40.6205 329.599 40.3563 330.162 39.8281C330.744 39.2999 331.034 38.525 331.034 37.5036V36.7377C330.524 37.1779 329.89 37.5212 329.132 37.7678C328.393 38.0144 327.6 38.1376 326.755 38.1376C325.417 38.1376 324.237 37.8558 323.216 37.2924C322.194 36.7288 321.393 35.9364 320.812 34.9152C320.248 33.8938 319.967 32.7228 319.967 31.402C319.967 30.0638 320.248 28.884 320.812 27.8627C321.375 26.8413 322.168 26.0576 323.189 25.5118C324.211 24.9484 325.382 24.6666 326.702 24.6666C328.516 24.6666 330.013 25.2213 331.193 26.3307V25.0627H335.683V36.8698C335.683 39.0709 335.005 40.7791 333.649 41.9941C332.311 43.2091 330.224 43.8166 327.389 43.8166ZM327.917 34.5454C328.639 34.5454 329.282 34.3605 329.845 33.9907C330.409 33.6208 330.805 33.1278 331.034 32.5114V30.2928C330.788 29.6764 330.383 29.1921 329.819 28.8399C329.256 28.4702 328.622 28.2853 327.917 28.2853C326.966 28.2853 326.2 28.567 325.619 29.1305C325.038 29.6764 324.748 30.4247 324.748 31.3757C324.748 32.3441 325.038 33.1189 325.619 33.7001C326.2 34.2636 326.966 34.5454 327.917 34.5454Z" fill="white"/>
<path d="M344.681 38.1376C343.114 38.1376 341.74 37.8558 340.56 37.2924C339.381 36.7112 338.465 35.9188 337.813 34.9152C337.179 33.8938 336.862 32.7228 336.862 31.402C336.862 30.0814 337.179 28.9192 337.813 27.9155C338.465 26.8941 339.381 26.1017 340.56 25.5383C341.74 24.9571 343.114 24.6666 344.681 24.6666C346.248 24.6666 347.622 24.9571 348.801 25.5383C349.981 26.1017 350.888 26.8941 351.522 27.9155C352.174 28.9192 352.499 30.0814 352.499 31.402C352.499 32.7228 352.174 33.8938 351.522 34.9152C350.888 35.9188 349.981 36.7112 348.801 37.2924C347.622 37.8558 346.248 38.1376 344.681 38.1376ZM344.681 34.5189C345.614 34.5189 346.354 34.246 346.9 33.7001C347.463 33.1366 347.745 32.3706 347.745 31.402C347.745 30.4336 347.463 29.6764 346.9 29.1305C346.354 28.567 345.614 28.2853 344.681 28.2853C343.748 28.2853 342.999 28.567 342.436 29.1305C341.89 29.6764 341.617 30.4336 341.617 31.402C341.617 32.3706 341.89 33.1366 342.436 33.7001C342.999 34.246 343.748 34.5189 344.681 34.5189Z" fill="white"/>
<path d="M427.062 19.2781H431.738V37.7414H427.062V19.2781Z" fill="white"/>
<path d="M434.105 25.0627H438.596V26.3307C439.775 25.2213 441.272 24.6666 443.086 24.6666C444.407 24.6666 445.578 24.9484 446.599 25.5118C447.621 26.0576 448.412 26.8413 448.976 27.8627C449.54 28.8664 449.822 30.0374 449.822 31.3757C449.822 32.6963 449.54 33.8762 448.976 34.9152C448.412 35.9364 447.621 36.7288 446.599 37.2924C445.596 37.8558 444.424 38.1376 443.086 38.1376C442.241 38.1376 441.431 38.0055 440.657 37.7414C439.9 37.4949 439.265 37.1514 438.755 36.7112V43.526H434.105V25.0627ZM441.871 34.5189C442.822 34.5189 443.589 34.2372 444.169 33.6737C444.75 33.1102 445.041 32.3441 445.041 31.3757C445.041 30.4071 444.75 29.65 444.169 29.1041C443.589 28.5406 442.822 28.2588 441.871 28.2588C441.167 28.2588 440.533 28.4437 439.969 28.8135C439.405 29.1657 439.002 29.65 438.755 30.2663V32.5114C439.002 33.1278 439.405 33.6208 439.969 33.9907C440.533 34.3429 441.167 34.5189 441.871 34.5189Z" fill="white"/>
<path d="M456.752 38.1376C455.731 38.1376 454.666 38.032 453.557 37.8206C452.448 37.627 451.566 37.3452 450.915 36.9754V33.568C451.637 33.9907 452.499 34.3429 453.504 34.6246C454.524 34.8887 455.458 35.0208 456.304 35.0208C456.919 35.0208 457.369 34.9767 457.65 34.8887C457.933 34.8007 458.073 34.6246 458.073 34.3605C458.073 34.1491 457.977 33.9818 457.783 33.8586C457.607 33.7177 457.271 33.5768 456.779 33.4359C456.304 33.2775 455.749 33.1102 455.115 32.934C454.041 32.6171 453.196 32.2913 452.579 31.9567C451.962 31.6221 451.505 31.1995 451.205 30.6889C450.906 30.1783 450.757 29.5356 450.757 28.7607C450.757 27.3871 451.294 26.3659 452.368 25.6967C453.459 25.0099 454.947 24.6666 456.832 24.6666C457.748 24.6666 458.708 24.7635 459.711 24.9571C460.733 25.1509 461.497 25.4062 462.009 25.7232V29.0777C461.481 28.7255 460.776 28.4349 459.895 28.206C459.033 27.977 458.222 27.8627 457.465 27.8627C456.867 27.8627 456.4 27.9242 456.066 28.0475C455.731 28.1532 455.564 28.3468 455.564 28.6286C455.564 28.8928 455.731 29.0953 456.066 29.2362C456.4 29.377 456.999 29.5532 457.862 29.7644C458.425 29.9054 458.663 29.9669 458.574 29.9493C459.702 30.2487 460.573 30.5833 461.19 30.9531C461.807 31.3229 462.237 31.7631 462.484 32.2737C462.749 32.7668 462.88 33.4007 462.88 34.1756C462.88 35.3906 462.352 36.359 461.296 37.081C460.256 37.7854 458.742 38.1376 456.752 38.1376Z" fill="white"/>
<path d="M469.821 38.1378C468.078 38.1378 466.766 37.6535 465.886 36.6851C465.024 35.7165 464.592 34.4399 464.592 32.8551V25.0629H469.241V32.3267C469.241 33.7883 469.901 34.519 471.222 34.519C471.821 34.519 472.367 34.3782 472.859 34.0964C473.352 33.8146 473.757 33.4009 474.074 32.8551V25.0629H478.723V37.7415H474.233V36.3681C473.688 36.9491 473.026 37.3893 472.251 37.6887C471.478 37.9881 470.667 38.1378 469.821 38.1378Z" fill="white"/>
<path d="M481.103 25.0627H485.409V26.4363C485.937 25.8729 486.545 25.4414 487.231 25.142C487.917 24.825 488.648 24.6666 489.423 24.6666C490.374 24.6666 491.132 24.8074 491.695 25.0892C492.277 25.371 492.743 25.7936 493.095 26.357C493.623 25.8288 494.266 25.4149 495.023 25.1157C495.781 24.8163 496.547 24.6666 497.321 24.6666C498.994 24.6666 500.183 25.0981 500.887 25.9609C501.591 26.8061 501.943 28.0299 501.943 29.6323V37.7414H497.506V30.2928C497.506 29.5884 497.374 29.0777 497.109 28.7607C496.846 28.4437 496.405 28.2853 495.79 28.2853C494.997 28.2853 494.353 28.567 493.861 29.1305C493.879 29.4298 493.887 29.8878 493.887 30.504V37.7414H489.45V30.1079C489.45 29.4563 489.336 28.9896 489.107 28.7079C488.877 28.4261 488.472 28.2853 487.892 28.2853C486.993 28.2853 486.219 28.7871 485.567 29.7909V37.7414H481.103V25.0627Z" fill="white"/>
<path d="M603.443 0C599.569 0 595.733 0.763123 592.154 2.24554C588.575 3.72813 585.323 5.90101 582.584 8.6403C579.844 11.3797 577.671 14.6317 576.189 18.2108C574.706 21.7899 573.943 25.6261 573.943 29.5C573.943 33.3739 574.706 37.2101 576.189 40.7892C577.671 44.3683 579.844 47.6203 582.584 50.3597C585.323 53.099 588.575 55.2719 592.154 56.7545C595.733 58.2369 599.569 59 603.443 59V44.25C601.506 44.25 599.588 43.8685 597.799 43.1271C596.009 42.3859 594.383 41.2995 593.014 39.9298C591.644 38.5602 590.557 36.9342 589.816 35.1446C589.075 33.3551 588.693 31.4371 588.693 29.5C588.693 27.5629 589.075 25.6449 589.816 23.8554C590.557 22.0658 591.644 20.4398 593.014 19.0702C594.383 17.7005 596.009 16.6141 597.799 15.8729C599.588 15.1315 601.506 14.75 603.443 14.75V0Z" fill="#0F52FF"/>
<path d="M603.444 39.3333C608.874 39.3333 613.277 34.9308 613.277 29.5C613.277 24.0692 608.874 19.6667 603.444 19.6667C598.013 19.6667 593.61 24.0692 593.61 29.5C593.61 34.9308 598.013 39.3333 603.444 39.3333Z" fill="#0F52FF"/>
<path d="M573.943 29.5C573.943 33.3739 574.706 37.2101 576.189 40.7892C577.671 44.3683 579.844 47.6203 582.584 50.3597C585.323 53.099 588.575 55.2719 592.154 56.7545C595.733 58.2369 599.569 59 603.443 59C607.317 59 611.153 58.2369 614.733 56.7545C618.312 55.2719 621.564 53.099 624.303 50.3597C627.042 47.6203 629.215 44.3683 630.698 40.7892C632.18 37.2101 632.943 33.3739 632.943 29.5H618.193C618.193 31.4371 617.812 33.3551 617.071 35.1446C616.329 36.9342 615.243 38.5602 613.873 39.9298C612.504 41.2995 610.878 42.3859 609.088 43.1271C607.298 43.8685 605.38 44.25 603.443 44.25C601.506 44.25 599.588 43.8685 597.799 43.1271C596.009 42.3859 594.383 41.2995 593.014 39.9298C591.644 38.5602 590.557 36.9342 589.816 35.1446C589.075 33.3551 588.693 31.4371 588.693 29.5H573.943Z" fill="#5BD0F4"/>
<path d="M613.277 29.5001C613.277 26.8922 612.241 24.3911 610.397 22.5469C608.553 20.7027 606.052 19.6667 603.444 19.6667C600.836 19.6667 598.335 20.7027 596.491 22.5469C594.646 24.3911 593.61 26.8922 593.61 29.5001H603.444H613.277Z" fill="#5BD0F4"/>
<path d="M648.35 18.4164H644.687V38.7714H648.35V18.4164Z" fill="#0F52FF"/>
<path d="M650.742 31.5604C650.742 36.2711 653.999 39.179 658.303 39.179C662.606 39.179 665.863 36.2711 665.863 31.5604C665.863 26.8497 662.606 23.9418 658.303 23.9418C653.999 23.9418 650.742 26.8497 650.742 31.5604ZM654.406 31.5604C654.406 28.7689 656.034 27.1405 658.303 27.1405C660.571 27.1405 662.199 28.7689 662.199 31.5604C662.199 34.352 660.571 35.9804 658.303 35.9804C656.034 35.9804 654.406 34.352 654.406 31.5604Z" fill="#0F52FF"/>
<path d="M678.956 24.3489V26.2971H678.665C677.793 25.0468 676.397 23.9418 673.896 23.9418C670.465 23.9418 667.383 26.8497 667.383 31.3278C667.383 35.8059 670.465 38.7137 673.896 38.7137C676.397 38.7137 677.793 37.5796 678.607 36.4456H678.898V37.8414C678.898 40.6329 677.27 41.9124 674.885 41.9124C672.501 41.9124 671.279 40.6329 670.785 38.9754L667.499 40.4003C668.255 42.5811 670.465 44.9947 674.943 44.9947C679.538 44.9947 682.562 42.5811 682.562 37.9285V24.3489H678.956ZM675.001 35.5733C672.733 35.5733 671.047 33.9449 671.047 31.3278C671.047 28.7107 672.733 27.0823 675.001 27.0823C677.27 27.0823 678.956 28.7107 678.956 31.3278C678.956 33.9449 677.27 35.5733 675.001 35.5733Z" fill="#0F52FF"/>
<path d="M684.933 31.5604C684.933 36.2711 688.189 39.179 692.493 39.179C696.797 39.179 700.053 36.2711 700.053 31.5604C700.053 26.8497 696.797 23.9418 692.493 23.9418C688.189 23.9418 684.933 26.8497 684.933 31.5604ZM688.597 31.5604C688.597 28.7689 690.225 27.1405 692.493 27.1405C694.761 27.1405 696.39 28.7689 696.39 31.5604C696.39 34.352 694.761 35.9804 692.493 35.9804C690.225 35.9804 688.597 34.352 688.597 31.5604Z" fill="#0F52FF"/>
<path d="M702.93 20.161C702.93 21.6441 704.064 22.6618 705.519 22.6618C706.972 22.6618 708.107 21.6441 708.107 20.161C708.107 18.6781 706.972 17.6603 705.519 17.6603C704.064 17.6603 702.93 18.6781 702.93 20.161ZM707.35 24.3483H703.687V38.7713H707.35V24.3483Z" fill="#5BD0F4"/>
<path d="M710.614 44.5876H714.279V36.9109H714.569C715.383 38.074 716.779 39.179 719.281 39.179C722.711 39.179 725.794 36.2711 725.794 31.5604C725.794 26.8497 722.711 23.9418 719.281 23.9418C716.779 23.9418 715.383 25.0468 714.512 26.2973H714.22V24.3489H710.614V44.5876ZM718.175 36.0385C715.907 36.0385 714.22 34.4101 714.22 31.5604C714.22 28.7107 715.907 27.0823 718.175 27.0823C720.444 27.0823 722.129 28.7107 722.129 31.5604C722.129 34.4101 720.444 36.0385 718.175 36.0385Z" fill="#5BD0F4"/>
<path d="M727.931 28.3909C727.931 31.2406 730.315 32.2875 733.339 32.869L734.096 33.0143C735.898 33.3633 736.712 33.7996 736.712 34.7301C736.712 35.6606 735.898 36.3875 734.212 36.3875C732.525 36.3875 731.16 35.6896 730.78 33.5959L727.407 34.4683C727.903 37.4924 730.431 39.179 734.212 39.179C737.876 39.179 740.261 37.4635 740.261 34.4393C740.261 31.4149 737.818 30.6009 734.561 29.9612L733.805 29.8157C732.292 29.5249 731.478 29.1178 731.478 28.1583C731.478 27.286 732.235 26.7334 733.631 26.7334C735.027 26.7334 736.014 27.3149 736.363 28.8852L739.679 27.8675C738.981 25.5412 736.859 23.9418 733.631 23.9418C730.199 23.9418 727.931 25.5412 727.931 28.3909Z" fill="#5BD0F4"/>
<path d="M756.718 38.7714V24.3484H753.055V31.7925C753.055 34.4677 751.747 36.038 749.507 36.038C747.53 36.038 746.425 34.9621 746.425 32.7812V24.3484H742.761V32.9556C742.761 36.5324 745.001 39.004 748.374 39.004C751.019 39.004 752.241 37.8408 752.823 36.6195H753.113V38.7714H756.718Z" fill="#5BD0F4"/>
<path d="M759.969 24.3486V38.7716H763.633V30.1643C763.633 28.187 764.564 27.082 766.25 27.082C767.704 27.082 768.576 27.8962 768.576 29.4664V38.7716H772.241V30.1643C772.241 28.187 773.171 27.082 774.857 27.082C776.312 27.082 777.183 27.8962 777.183 29.4664V38.7716H780.848V29.292C780.848 25.8025 778.695 24.116 776.02 24.116C773.665 24.116 772.59 25.1628 771.892 26.3841H771.6C770.931 25.0175 769.739 24.116 767.645 24.116C765.552 24.116 764.417 25.0465 763.866 26.1515H763.574V24.3486H759.969Z" fill="#5BD0F4"/>
<path d="M894.666 48.8306L855.186 21.5977C851.186 18.8381 852.546 13.0922 857.534 11.741L899.494 0.352723C900.383 0.0320001 901.335 -0.0721106 902.272 0.0490339C903.21 0.170178 904.104 0.513083 904.882 1.04929C905.66 1.58549 906.299 2.29953 906.746 3.13215C907.193 3.96476 907.435 4.89194 907.451 5.83672L904.965 44.4557C904.67 49.0397 898.667 51.5902 894.666 48.8306Z" fill="#E9327C"/>
<path d="M882.144 55.5531L858.885 10.0681C858.354 9.02755 858.12 7.86037 858.209 6.69528C858.299 5.5302 858.708 4.41247 859.393 3.46538C860.077 2.51828 861.01 1.7786 862.088 1.32792C863.166 0.87723 864.348 0.733045 865.502 0.911259L908.606 7.56379C909.599 7.71697 910.541 8.10351 911.355 8.69164C912.168 9.27976 912.831 10.0527 913.288 10.9468C913.745 11.841 913.983 12.8308 913.983 13.8349C913.983 14.8391 913.744 15.8288 913.287 16.7228L893.431 55.5553C892.898 56.5929 892.089 57.4634 891.093 58.0711C890.097 58.6788 888.953 59.0002 887.787 59C886.62 58.9998 885.476 58.6779 884.481 58.0698C883.485 57.4617 882.676 56.5909 882.144 55.5531Z" fill="#1DACE3"/>
<path d="M907.346 7.36843L885.859 4.05206L859.478 11.2151L870.008 31.8153L894.666 48.8307C895.21 49.2018 895.808 49.4862 896.439 49.6735L905.805 31.3576L907.346 7.36843Z" fill="#3A68B8"/>
<path d="M1016.18 12.6849C1016.18 11.8862 1016.42 11.1055 1016.86 10.4414C1017.31 9.77734 1017.94 9.25975 1018.68 8.95411C1019.41 8.64847 1020.23 8.56851 1021.01 8.72432C1021.79 8.88014 1022.51 9.26474 1023.08 9.82949C1023.64 10.3942 1024.03 11.1138 1024.18 11.8971C1024.34 12.6804 1024.26 13.4924 1023.95 14.2302C1023.65 14.9681 1023.13 15.5988 1022.46 16.0425C1021.8 16.4862 1021.02 16.7231 1020.22 16.7231C1019.15 16.7122 1018.13 16.2832 1017.38 15.5283C1016.62 14.7733 1016.19 13.7525 1016.18 12.6849ZM1016.86 18.6971H1023.59V41.1304H1016.86V18.6971Z" fill="white"/>
<path d="M1052.66 29.9139C1052.74 31.3967 1052.52 32.8803 1052.02 34.2795C1051.53 35.6786 1050.76 36.9656 1049.76 38.0666C1048.76 39.1675 1047.56 40.0605 1046.22 40.6944C1044.87 41.3282 1043.42 41.6904 1041.94 41.7599C1040.69 41.8279 1039.44 41.6174 1038.29 41.144C1037.13 40.6705 1036.09 39.9458 1035.25 39.0223V50.1048H1028.52V18.6972H1035.25V20.8055C1036.09 19.8824 1037.13 19.1581 1038.29 18.685C1039.44 18.2119 1040.69 18.0019 1041.94 18.0701C1043.42 18.1394 1044.87 18.5012 1046.22 19.1348C1047.56 19.7685 1048.76 20.6613 1049.76 21.7621C1050.76 22.8628 1051.53 24.1497 1052.02 25.5487C1052.52 26.9477 1052.74 28.4312 1052.66 29.9139ZM1045.93 29.9139C1045.9 28.8636 1045.57 27.8444 1044.96 26.9839C1044.36 26.1233 1043.52 25.4597 1042.54 25.076C1041.56 24.6924 1040.49 24.6057 1039.46 24.8269C1038.44 25.048 1037.5 25.5672 1036.77 26.3195C1036.03 27.0717 1035.54 28.0236 1035.34 29.0559C1035.15 30.0883 1035.26 31.1553 1035.67 32.1234C1036.08 33.0915 1036.76 33.9176 1037.64 34.4985C1038.51 35.0794 1039.54 35.3892 1040.59 35.3891C1041.31 35.4216 1042.03 35.3011 1042.7 35.0356C1043.37 34.7701 1043.98 34.3655 1044.49 33.8484C1044.99 33.3314 1045.38 32.7135 1045.63 32.0354C1045.88 31.3573 1045.98 30.6343 1045.93 29.9139Z" fill="white"/>
<path d="M1073.43 34.3966C1073.43 39.5571 1068.94 41.7556 1064.1 41.7556C1062.14 41.9327 1060.17 41.5184 1058.45 40.5662C1056.74 39.6141 1055.34 38.1678 1054.45 36.4146L1060.28 33.0961C1060.52 33.9065 1061.03 34.6109 1061.72 35.0916C1062.42 35.5722 1063.26 35.8 1064.1 35.7368C1065.71 35.7368 1066.52 35.2417 1066.52 34.346C1066.52 31.8769 1055.48 33.1797 1055.48 25.4158C1055.48 20.526 1059.61 18.0591 1064.28 18.0591C1066.04 18.004 1067.78 18.4203 1069.31 19.2644C1070.85 20.1085 1072.14 21.3497 1073.03 22.8587L1067.29 25.955C1067.04 25.3661 1066.62 24.8642 1066.09 24.512C1065.55 24.1598 1064.92 23.9728 1064.28 23.9744C1063.12 23.9744 1062.4 24.4145 1062.4 25.231C1062.39 27.8057 1073.43 26.1002 1073.43 34.3966Z" fill="white"/>
<path d="M1098.03 18.6968V41.1301H1091.3V39.0175C1090.52 39.9482 1089.53 40.6814 1088.42 41.1573C1087.3 41.6331 1086.09 41.838 1084.88 41.7551C1080.35 41.7551 1076.49 38.5246 1076.49 32.4662V18.6968H1083.22V31.4847C1083.16 32.0194 1083.22 32.56 1083.4 33.0689C1083.57 33.5778 1083.85 34.0427 1084.23 34.4313C1084.6 34.8199 1085.05 35.1228 1085.55 35.3189C1086.05 35.515 1086.59 35.5997 1087.12 35.5669C1089.59 35.5669 1091.31 34.1321 1091.31 30.9456V18.6968H1098.03Z" fill="white"/>
<path d="M1136.6 27.3538V41.1298H1129.87V27.9392C1129.87 25.6967 1128.79 24.2597 1126.64 24.2597C1124.39 24.2597 1123.14 25.831 1123.14 28.4784V41.1298H1116.41V27.9392C1116.41 25.6967 1115.33 24.2597 1113.18 24.2597C1110.94 24.2597 1109.68 25.831 1109.68 28.4784V41.1298H1102.95V18.6965H1109.69V20.7519C1110.39 19.8367 1111.3 19.1108 1112.35 18.6407C1113.4 18.1705 1114.55 17.9711 1115.7 18.0605C1116.85 18.0042 1118 18.2472 1119.03 18.7659C1120.06 19.2847 1120.94 20.0614 1121.58 21.0204C1122.33 20.017 1123.31 19.2191 1124.45 18.7015C1125.59 18.1838 1126.84 17.9633 1128.09 18.0605C1133.24 18.0693 1136.6 21.7466 1136.6 27.3538Z" fill="white"/>
<path d="M1142.3 18.5582C1145.06 18.5582 1147.3 16.3216 1147.3 13.5627C1147.3 10.8038 1145.06 8.56726 1142.3 8.56726C1139.54 8.56726 1137.31 10.8038 1137.31 13.5627C1137.31 16.3216 1139.54 18.5582 1142.3 18.5582Z" fill="white"/>
<path d="M924.302 8.37811H931.034V41.1302H924.302V8.37811ZM934.845 29.9136C934.838 27.5617 935.528 25.2605 936.83 23.3013C938.131 21.3422 939.984 19.8132 942.155 18.9081C944.326 18.0029 946.716 17.7622 949.024 18.2165C951.331 18.6708 953.452 19.7996 955.118 21.4601C956.784 23.1205 957.919 25.2378 958.381 27.544C958.842 29.8502 958.609 32.2415 957.711 34.4151C956.813 36.5887 955.289 38.4468 953.334 39.7543C951.379 41.0617 949.08 41.7596 946.728 41.7596C945.166 41.7763 943.617 41.4816 942.17 40.8927C940.723 40.3037 939.408 39.4324 938.302 38.3295C937.195 37.2267 936.32 35.9144 935.726 34.4694C935.133 33.0244 934.833 31.4757 934.845 29.9136ZM951.896 29.9136C951.869 28.899 951.544 27.9148 950.961 27.084C950.379 26.2532 949.564 25.6127 948.619 25.2427C947.674 24.8726 946.641 24.7893 945.649 25.0034C944.657 25.2174 943.75 25.7192 943.041 26.4459C942.333 27.1727 941.855 28.0922 941.666 29.0894C941.478 30.0866 941.587 31.1172 941.982 32.0524C942.376 32.9876 943.037 33.7857 943.882 34.3471C944.728 34.9084 945.72 35.208 946.735 35.2083C947.43 35.2281 948.122 35.1037 948.766 34.843C949.41 34.5822 949.994 34.1908 950.48 33.6933C950.965 33.1959 951.343 32.6032 951.588 31.9527C951.833 31.3021 951.941 30.6078 951.904 29.9136H951.896ZM985.453 18.6903V40.0035C985.453 47.5407 979.575 50.725 973.609 50.725C971.509 50.8835 969.406 50.4608 967.53 49.5032C965.655 48.5455 964.079 47.09 962.976 45.296L968.717 41.9753C969.181 42.9115 969.919 43.684 970.833 44.1894C971.748 44.6947 972.794 44.9088 973.834 44.8031C974.497 44.8937 975.172 44.8342 975.81 44.6289C976.447 44.4237 977.03 44.078 977.516 43.6173C978.001 43.1566 978.378 42.5928 978.616 41.9673C978.855 41.3418 978.95 40.6707 978.895 40.0035V37.9393C978.107 38.9033 977.104 39.6692 975.966 40.1756C974.828 40.6819 973.588 40.9147 972.344 40.8551C969.383 40.7631 966.574 39.5221 964.512 37.395C962.45 35.2679 961.297 32.4217 961.297 29.4591C961.297 26.4966 962.45 23.6504 964.512 21.5233C966.574 19.3961 969.383 18.1551 972.344 18.0631C973.588 18.0036 974.828 18.2364 975.966 18.7427C977.104 19.2491 978.107 20.015 978.895 20.979V18.6903H985.453ZM978.904 29.458C978.948 28.3745 978.668 27.3025 978.098 26.3798C977.528 25.4571 976.695 24.726 975.707 24.2804C974.718 23.8347 973.619 23.695 972.55 23.8791C971.481 24.0633 970.492 24.5628 969.71 25.3136C968.927 26.0644 968.387 27.0321 968.159 28.0923C967.931 29.1524 968.025 30.2566 968.43 31.2628C968.834 32.269 969.53 33.1312 970.428 33.7386C971.327 34.3461 972.386 34.6709 973.471 34.6714C974.178 34.7211 974.887 34.6222 975.554 34.3812C976.221 34.1402 976.829 33.7623 977.341 33.2719C977.853 32.7815 978.256 32.1894 978.525 31.5337C978.795 30.878 978.924 30.1732 978.904 29.4646V29.458ZM989.265 29.8982C989.257 27.5463 989.948 25.245 991.249 23.2859C992.55 21.3268 994.404 19.7978 996.575 18.8926C998.745 17.9875 1001.14 17.7468 1003.44 18.2011C1005.75 18.6554 1007.87 19.7842 1009.54 21.4447C1011.2 23.1051 1012.34 25.2224 1012.8 27.5286C1013.26 29.8348 1013.03 32.2261 1012.13 34.3997C1011.23 36.5733 1009.71 38.4314 1007.75 39.7389C1005.8 41.0463 1003.5 41.7442 1001.15 41.7442C999.587 41.7609 998.039 41.4667 996.593 40.8787C995.147 40.2907 993.833 39.4207 992.727 38.3195C991.621 37.2183 990.745 35.9079 990.15 34.4647C989.556 33.0215 989.255 31.4744 989.265 29.9136V29.8982ZM1006.32 29.8982C1006.29 28.883 1005.96 27.8981 1005.38 27.0666C1004.8 26.2351 1003.98 25.5939 1003.04 25.2234C1002.09 24.8529 1001.06 24.7694 1000.07 24.9835C999.073 25.1975 998.166 25.6996 997.457 26.4268C996.748 27.154 996.27 28.0741 996.081 29.0719C995.893 30.0698 996.003 31.101 996.397 32.0367C996.792 32.9723 997.454 33.7708 998.3 34.3322C999.146 34.8936 1000.14 35.193 1001.15 35.1929C1001.85 35.2113 1002.54 35.0864 1003.18 34.8261C1003.82 34.5657 1004.4 34.1755 1004.89 33.6799C1005.37 33.1842 1005.75 32.5939 1005.99 31.9458C1006.24 31.2977 1006.35 30.6058 1006.32 29.9136V29.8982Z" fill="white"/>
</svg>
